<?xml version="1.0" encoding="UTF-8" standalone="no"?>
<svg
   xmlns:dc="http://purl.org/dc/elements/1.1/"
   xmlns:cc="http://creativecommons.org/ns#"
   xmlns:rdf="http://www.w3.org/1999/02/22-rdf-syntax-ns#"
   xmlns:svg="http://www.w3.org/2000/svg"
   xmlns="http://www.w3.org/2000/svg"
   xmlns:sodipodi="http://sodipodi.sourceforge.net/DTD/sodipodi-0.dtd"
   xmlns:inkscape="http://www.inkscape.org/namespaces/inkscape"
   inkscape:version="1.0 (4035a4fb49, 2020-05-01)"
   sodipodi:docname="discord.svg"
   id="svg40"
   version="1.1"
   height="50"
   width="50"
   viewBox="0 0 100 100">
  <metadata
     id="metadata46">
    <rdf:RDF>
      <cc:Work
         rdf:about="">
        <dc:format>image/svg+xml</dc:format>
        <dc:type
           rdf:resource="http://purl.org/dc/dcmitype/StillImage" />
      </cc:Work>
    </rdf:RDF>
  </metadata>
  <defs
     id="defs44" />
  <sodipodi:namedview
     inkscape:current-layer="svg40"
     inkscape:window-maximized="1"
     inkscape:window-y="-8"
     inkscape:window-x="-8"
     inkscape:cy="23.557453"
     inkscape:cx="8.8128282"
     inkscape:zoom="5.86"
     showgrid="false"
     id="namedview42"
     inkscape:window-height="837"
     inkscape:window-width="1600"
     inkscape:pageshadow="2"
     inkscape:pageopacity="0"
     guidetolerance="10"
     gridtolerance="10"
     objecttolerance="10"
     borderopacity="1"
     bordercolor="#666666"
     pagecolor="#ffffff" />
  <g
     transform="matrix(1.3157895,0,0,1.3157895,-15.789474,-15.789474)"
     id="g890">
    <path
       fill="#f1bc19"
       d="m 78,13 a 1,1 0 1 0 0,2 1,1 0 1 0 0,-2 z"
       id="path2" />
    <path
       fill="#f9dbd2"
       d="m 50,12 a 38,38 0 1 0 0,76 38,38 0 1 0 0,-76 z"
       id="path4" />
    <path
       fill="#f1bc19"
       d="m 84,12 a 4,4 0 1 0 0,8 4,4 0 1 0 0,-8 z"
       id="path6" />
    <path
       fill="#ee3e54"
       d="m 14,24 a 2,2 0 1 0 0,4 2,2 0 1 0 0,-4 z"
       id="path8" />
    <path
       fill="#fbcd59"
       d="m 78,75 a 2,2 0 1 0 0,4 2,2 0 1 0 0,-4 z M 17,74 a 4,4 0 1 0 0,8 4,4 0 1 0 0,-8 z"
       id="path10" />
    <path
       fill="#ee3e54"
       d="m 24,81 a 2,2 0 1 0 0,4 2,2 0 1 0 0,-4 z"
       id="path12" />
    <path
       fill="#ffffff"
       d="m 66.483,76.034 a 2.483,2.483 0 1 0 0,4.966 2.483,2.483 0 1 0 0,-4.966 z M 16,47 a 1,1 0 1 0 0,2 1,1 0 1 0 0,-2 z"
       id="path14" />
    <path
       fill="#f1bc19"
       d="m 86,30 a 1,1 0 1 0 0,2 1,1 0 1 0 0,-2 z"
       id="path16" />
    <path
       fill="#ffffff"
       d="m 80,64 a 2,2 0 1 0 0,4 2,2 0 1 0 0,-4 z"
       id="path18" />
    <g
       id="g38">
      <path
         fill="#88cdd7"
         d="M 64.125,68.301 C 63.383,68.3 62.856,68.036 62.417,67.444 61.151,65.737 60.532,63.698 60.526,63.677 L 60.354,63.1 59.757,63.184 c -3.168,0.45 -6.416,0.679 -9.652,0.679 -3.238,0 -6.558,-0.229 -9.865,-0.679 l -0.594,-0.081 -0.172,0.574 c -0.006,0.021 -0.625,2.06 -1.891,3.767 -0.439,0.593 -0.966,0.857 -1.708,0.857 -0.777,0 -1.683,-0.283 -2.641,-0.583 L 32.6,67.522 C 29.878,66.704 25.731,63.962 23.956,62.357 23.179,61.613 22.359,60.83 22.85,56.224 23.4,51.06 26.648,38.05 27.799,35.239 c 1.035,-2.528 2.804,-3.633 4.679,-4.63 2.078,-0.927 4.39,-1.695 6.825,-2.262 0.573,-0.119 1.071,-0.179 1.508,-0.179 1.297,0 1.665,0.544 1.829,0.953 l 1.077,2.684 0.584,-0.136 c 1.876,-0.436 3.786,-0.657 5.677,-0.657 1.891,0 3.816,0.222 5.724,0.658 l 0.583,0.133 1.076,-2.682 c 0.164,-0.409 0.532,-0.953 1.829,-0.953 0.437,0 0.935,0.06 1.522,0.183 2.421,0.563 4.732,1.331 6.854,2.278 1.831,0.977 3.6,2.081 4.635,4.609 1.151,2.812 4.399,15.821 4.949,20.985 0.49,4.605 -0.329,5.389 -1.121,6.146 -1.76,1.592 -5.907,4.333 -8.629,5.15 l -0.636,0.196 c -0.956,0.303 -1.861,0.586 -2.639,0.586 z"
         id="path20" />
      <path
         fill="#472b29"
         d="m 59.189,28.868 c 0.383,0 0.847,0.057 1.349,0.162 2.376,0.552 4.63,1.299 6.699,2.22 1.806,0.963 3.376,1.957 4.317,4.254 1.11,2.711 4.369,15.798 4.901,20.795 0.454,4.262 -0.208,4.896 -0.88,5.54 -1.686,1.525 -5.787,4.235 -8.376,5.013 -0.214,0.064 -0.429,0.131 -0.642,0.198 -0.906,0.283 -1.761,0.55 -2.432,0.55 -0.525,0 -0.836,-0.155 -1.146,-0.573 -1.187,-1.602 -1.777,-3.532 -1.782,-3.549 l -0.344,-1.156 -1.195,0.169 c -3.136,0.446 -6.35,0.671 -9.554,0.671 -3.207,0 -6.494,-0.226 -9.771,-0.672 l -1.185,-0.159 -0.345,1.145 c -0.006,0.019 -0.595,1.949 -1.782,3.55 -0.31,0.418 -0.621,0.574 -1.146,0.574 -0.671,0 -1.526,-0.268 -2.432,-0.55 -0.213,-0.067 -0.428,-0.134 -0.642,-0.198 -2.589,-0.777 -6.69,-3.488 -8.347,-4.985 -0.701,-0.671 -1.363,-1.305 -0.909,-5.567 0.532,-4.997 3.791,-18.084 4.901,-20.795 0.941,-2.298 2.51,-3.292 4.317,-4.254 2.069,-0.921 4.322,-1.668 6.668,-2.214 0.532,-0.111 0.996,-0.168 1.379,-0.168 0.973,0 1.107,0.335 1.179,0.514 l 0.853,2.126 0.447,1.114 1.169,-0.271 c 1.824,-0.424 3.68,-0.639 5.518,-0.639 1.839,0 3.712,0.215 5.568,0.64 l 1.166,0.267 0.445,-1.111 0.853,-2.126 c 0.074,-0.18 0.208,-0.515 1.181,-0.515 m 0,-1.4 c -1.095,0 -2.054,0.335 -2.479,1.393 l -0.853,2.126 c -1.974,-0.452 -3.934,-0.675 -5.88,-0.675 -1.959,0 -3.904,0.227 -5.835,0.675 l -0.853,-2.126 c -0.424,-1.058 -1.384,-1.393 -2.479,-1.393 -0.539,0 -1.11,0.082 -1.666,0.198 -2.487,0.578 -4.82,1.353 -6.996,2.325 -1.874,0.997 -3.85,2.18 -4.997,4.983 -1.178,2.876 -4.448,16.018 -4.997,21.177 -0.5,4.692 0.292,5.73 1.333,6.727 1.791,1.619 6.041,4.453 8.912,5.315 1.206,0.362 2.406,0.807 3.476,0.807 0.861,0 1.639,-0.288 2.271,-1.14 1.359,-1.834 1.999,-3.983 1.999,-3.983 3.347,0.456 6.668,0.685 9.96,0.685 3.278,0 6.529,-0.227 9.751,-0.685 0,0 0.639,2.149 1.999,3.983 0.631,0.852 1.409,1.14 2.27,1.14 1.07,0 2.27,-0.445 3.477,-0.808 2.871,-0.862 7.121,-3.696 8.912,-5.315 1.041,-0.997 1.832,-2.035 1.333,-6.727 C 77.298,50.991 74.027,37.849 72.85,34.973 71.702,32.17 69.727,30.987 67.853,29.99 65.677,29.017 63.344,28.243 60.857,27.665 60.299,27.55 59.728,27.468 59.189,27.468 Z"
         id="path22" />
      <path
         fill="#472b29"
         d="m 50.166,64.563 c -6.003,0 -11.979,-0.966 -17.884,-2.897 -0.367,-0.12 -0.567,-0.516 -0.447,-0.883 0.12,-0.367 0.517,-0.567 0.883,-0.447 11.523,3.768 23.322,3.77 35.068,-0.002 0.374,-0.114 0.763,0.086 0.881,0.453 0.117,0.368 -0.085,0.763 -0.453,0.881 -6.016,1.93 -12.046,2.895 -18.048,2.895 z m 15.147,-29.3 c -0.091,0 -0.184,-0.018 -0.272,-0.056 -9.907,-4.187 -19.857,-4.188 -29.575,-0.002 -0.356,0.151 -0.768,-0.01 -0.92,-0.365 -0.153,-0.355 0.011,-0.768 0.365,-0.92 10.084,-4.342 20.405,-4.344 30.675,-0.002 0.356,0.15 0.522,0.561 0.372,0.917 -0.113,0.268 -0.373,0.428 -0.645,0.428 z"
         id="path24" />
      <path
         fill="#472b29"
         d="m 65.313,38.063 c -0.065,0 -0.131,-0.013 -0.194,-0.039 -0.385,-0.162 -0.769,-0.319 -1.153,-0.469 -5.302,-2.071 -10.647,-2.962 -15.897,-2.642 -0.304,0.034 -0.513,-0.193 -0.529,-0.469 -0.016,-0.276 0.193,-0.513 0.469,-0.529 5.394,-0.322 10.884,0.585 16.321,2.708 0.393,0.153 0.786,0.313 1.179,0.479 0.255,0.107 0.374,0.401 0.267,0.655 -0.084,0.191 -0.269,0.306 -0.463,0.306 z M 43.304,35.521 c -0.233,0 -0.443,-0.165 -0.489,-0.404 -0.054,-0.271 0.123,-0.533 0.395,-0.586 0.82,-0.161 1.652,-0.295 2.474,-0.398 0.271,-0.04 0.523,0.158 0.559,0.434 0.034,0.274 -0.159,0.524 -0.434,0.559 -0.799,0.101 -1.608,0.23 -2.407,0.387 -0.034,0.006 -0.066,0.008 -0.098,0.008 z m -7.17,2.147 c -0.197,0 -0.385,-0.118 -0.464,-0.313 -0.104,-0.257 0.021,-0.548 0.276,-0.651 1.643,-0.662 3.316,-1.218 4.978,-1.651 0.27,-0.077 0.54,0.091 0.609,0.357 0.07,0.267 -0.09,0.54 -0.357,0.609 -1.619,0.424 -3.252,0.966 -4.854,1.612 -0.062,0.025 -0.126,0.037 -0.188,0.037 z"
         id="path26" />
      <path
         fill="#fffef4"
         d="m 40.5,44.7 a 4.8,5.8 0 1 0 0,11.6 4.8,5.8 0 1 0 0,-11.6 z"
         id="path28" />
      <path
         fill="#472b29"
         d="m 40.5,45.4 c 2.261,0 4.1,2.288 4.1,5.1 0,2.812 -1.839,5.1 -4.1,5.1 -2.261,0 -4.1,-2.288 -4.1,-5.1 0,-2.812 1.839,-5.1 4.1,-5.1 m 0,-1.4 C 37.462,44 35,46.91 35,50.5 35,54.09 37.462,57 40.5,57 43.538,57 46,54.09 46,50.5 46,46.91 43.538,44 40.5,44 Z"
         id="path30" />
      <g
         id="g36">
        <path
           fill="#fffef4"
           d="m 59.5,44.7 a 4.8,5.8 0 1 0 0,11.6 4.8,5.8 0 1 0 0,-11.6 z"
           id="path32" />
        <path
           fill="#472b29"
           d="m 59.5,45.4 c 2.261,0 4.1,2.288 4.1,5.1 0,2.812 -1.839,5.1 -4.1,5.1 -2.261,0 -4.1,-2.288 -4.1,-5.1 0,-2.812 1.839,-5.1 4.1,-5.1 m 0,-1.4 C 56.462,44 54,46.91 54,50.5 54,54.09 56.462,57 59.5,57 62.538,57 65,54.09 65,50.5 65,46.91 62.538,44 59.5,44 Z"
           id="path34" />
      </g>
    </g>
  </g>
</svg>
